<?xml version="1.0" encoding="UTF-8" standalone="no"?>
<!-- Created with Inkscape (http://www.inkscape.org/) -->

<svg
   xmlns:dc="http://purl.org/dc/elements/1.1/"
   xmlns:cc="http://creativecommons.org/ns#"
   xmlns:rdf="http://www.w3.org/1999/02/22-rdf-syntax-ns#"
   xmlns:svg="http://www.w3.org/2000/svg"
   xmlns="http://www.w3.org/2000/svg"
   xmlns:sodipodi="http://sodipodi.sourceforge.net/DTD/sodipodi-0.dtd"
   xmlns:inkscape="http://www.inkscape.org/namespaces/inkscape"
   width="744.09448819"
   height="1052.3622047"
   id="svg2"
   version="1.1"
   inkscape:version="0.48.5 r10040"
   sodipodi:docname="New document 1">
  <defs
     id="defs4" />
  <sodipodi:namedview
     id="base"
     pagecolor="#ffffff"
     bordercolor="#666666"
     borderopacity="1.0"
     inkscape:pageopacity="0.0"
     inkscape:pageshadow="2"
     inkscape:zoom="0.98994949"
     inkscape:cx="307.38075"
     inkscape:cy="1477.2146"
     inkscape:document-units="px"
     inkscape:current-layer="layer1"
     showgrid="false"
     inkscape:window-width="1600"
     inkscape:window-height="877"
     inkscape:window-x="-8"
     inkscape:window-y="-8"
     inkscape:window-maximized="1" />
  <metadata
     id="metadata7">
    <rdf:RDF>
      <cc:Work
         rdf:about="">
        <dc:format>image/svg+xml</dc:format>
        <dc:type
           rdf:resource="http://purl.org/dc/dcmitype/StillImage" />
        <dc:title></dc:title>
      </cc:Work>
    </rdf:RDF>
  </metadata>
  <g
     inkscape:label="Layer 1"
     inkscape:groupmode="layer"
     id="layer1">
    <path
       sodipodi:type="arc"
       style="fill:#ffffff;fill-opacity:1;fill-rule:nonzero;stroke:#000000;stroke-width:5;stroke-miterlimit:4;stroke-opacity:1;stroke-dasharray:none"
       id="path2987"
       sodipodi:cx="85"
       sodipodi:cy="243.07646"
       sodipodi:rx="40.714287"
       sodipodi:ry="40.714287"
       d="m 125.71429,243.07646 a 40.714287,40.714287 0 1 1 -81.428577,0 40.714287,40.714287 0 1 1 81.428577,0 z"
       transform="matrix(0.6012461,0,0,0.6012461,45.863376,-454.27614)" />
    <path
       transform="matrix(0.6012461,0,0,0.6012461,130.89676,-455.99399)"
       d="m 125.71429,243.07646 a 40.714287,40.714287 0 1 1 -81.428577,0 40.714287,40.714287 0 1 1 81.428577,0 z"
       sodipodi:ry="40.714287"
       sodipodi:rx="40.714287"
       sodipodi:cy="243.07646"
       sodipodi:cx="85"
       id="path3757"
       style="fill:#ffffff;fill-opacity:1;fill-rule:nonzero;stroke:#000000;stroke-width:5;stroke-miterlimit:4;stroke-opacity:1;stroke-dasharray:none"
       sodipodi:type="arc" />
    <path
       sodipodi:type="arc"
       style="fill:#ffffff;fill-opacity:1;fill-rule:nonzero;stroke:#000000;stroke-width:5;stroke-miterlimit:4;stroke-opacity:1;stroke-dasharray:none"
       id="path3759"
       sodipodi:cx="85"
       sodipodi:cy="243.07646"
       sodipodi:rx="40.714287"
       sodipodi:ry="40.714287"
       d="m 125.71429,243.07646 a 40.714287,40.714287 0 1 1 -81.428577,0 40.714287,40.714287 0 1 1 81.428577,0 z"
       transform="matrix(0.6012461,0,0,0.6012461,215.07121,-450.84045)" />
    <path
       transform="matrix(0.6012461,0,0,0.6012461,2.0583057,-672.15776)"
       d="m 125.71429,243.07646 a 40.714287,40.714287 0 1 1 -81.428577,0 40.714287,40.714287 0 1 1 81.428577,0 z"
       sodipodi:ry="40.714287"
       sodipodi:rx="40.714287"
       sodipodi:cy="243.07646"
       sodipodi:cx="85"
       id="path3761"
       style="fill:#ffffff;fill-opacity:1;fill-rule:nonzero;stroke:#000000;stroke-width:5;stroke-miterlimit:4;stroke-opacity:1;stroke-dasharray:none"
       sodipodi:type="arc" />
    <path
       sodipodi:type="arc"
       style="fill:#ffffff;fill-opacity:1;fill-rule:nonzero;stroke:#000000;stroke-width:5;stroke-miterlimit:4;stroke-opacity:1;stroke-dasharray:none"
       id="path3763"
       sodipodi:cx="85"
       sodipodi:cy="243.07646"
       sodipodi:rx="40.714287"
       sodipodi:ry="40.714287"
       d="m 125.71429,243.07646 a 40.714287,40.714287 0 1 1 -81.428577,0 40.714287,40.714287 0 1 1 81.428577,0 z"
       transform="matrix(0.6012461,0,0,0.6012461,84.948819,-626.01846)" />
    <path
       transform="matrix(0.6012461,0,0,0.6012461,170.55185,-576.57921)"
       d="m 125.71429,243.07646 a 40.714287,40.714287 0 1 1 -81.428577,0 40.714287,40.714287 0 1 1 81.428577,0 z"
       sodipodi:ry="40.714287"
       sodipodi:rx="40.714287"
       sodipodi:cy="243.07646"
       sodipodi:cx="85"
       id="path3765"
       style="fill:#ffffff;fill-opacity:1;fill-rule:nonzero;stroke:#000000;stroke-width:5;stroke-miterlimit:4;stroke-opacity:1;stroke-dasharray:none"
       sodipodi:type="arc" />
    <path
       sodipodi:type="arc"
       style="fill:#ffffff;fill-opacity:1;fill-rule:nonzero;stroke:#000000;stroke-width:5;stroke-miterlimit:4;stroke-opacity:1;stroke-dasharray:none"
       id="path3767"
       sodipodi:cx="85"
       sodipodi:cy="243.07646"
       sodipodi:rx="40.714287"
       sodipodi:ry="40.714287"
       d="m 125.71429,243.07646 a 40.714287,40.714287 0 1 1 -81.428577,0 40.714287,40.714287 0 1 1 81.428577,0 z"
       transform="matrix(0.6012461,0,0,0.6012461,262.87272,-522.72741)" />
    <path
       transform="matrix(0.6012461,0,0,0.6012461,41.577659,-759.99043)"
       d="m 125.71429,243.07646 a 40.714287,40.714287 0 1 1 -81.428577,0 40.714287,40.714287 0 1 1 81.428577,0 z"
       sodipodi:ry="40.714287"
       sodipodi:rx="40.714287"
       sodipodi:cy="243.07646"
       sodipodi:cx="85"
       id="path3769"
       style="fill:#ffffff;fill-opacity:1;fill-rule:nonzero;stroke:#000000;stroke-width:5;stroke-miterlimit:4;stroke-opacity:1;stroke-dasharray:none"
       sodipodi:type="arc" />
    <path
       sodipodi:type="arc"
       style="fill:#ffffff;fill-opacity:1;fill-rule:nonzero;stroke:#000000;stroke-width:5;stroke-miterlimit:4;stroke-opacity:1;stroke-dasharray:none"
       id="path3771"
       sodipodi:cx="85"
       sodipodi:cy="243.07646"
       sodipodi:rx="40.714287"
       sodipodi:ry="40.714287"
       d="m 125.71429,243.07646 a 40.714287,40.714287 0 1 1 -81.428577,0 40.714287,40.714287 0 1 1 81.428577,0 z"
       transform="matrix(0.6012461,0,0,0.6012461,126.61104,-761.70828)" />
    <path
       transform="matrix(0.6012461,0,0,0.6012461,210.78549,-756.55474)"
       d="m 125.71429,243.07646 a 40.714287,40.714287 0 1 1 -81.428577,0 40.714287,40.714287 0 1 1 81.428577,0 z"
       sodipodi:ry="40.714287"
       sodipodi:rx="40.714287"
       sodipodi:cy="243.07646"
       sodipodi:cx="85"
       id="path3773"
       style="fill:#ffffff;fill-opacity:1;fill-rule:nonzero;stroke:#000000;stroke-width:5;stroke-miterlimit:4;stroke-opacity:1;stroke-dasharray:none"
       sodipodi:type="arc" />
    <text
       xml:space="preserve"
       style="font-size:40px;font-style:normal;font-variant:normal;font-weight:normal;font-stretch:normal;text-align:start;line-height:125%;letter-spacing:0px;word-spacing:0px;writing-mode:lr-tb;text-anchor:start;fill:#000000;fill-opacity:1;stroke:none;font-family:Sans;-inkscape-font-specification:Sans"
       x="32.827404"
       y="-203.07727"
       id="text3775"
       sodipodi:linespacing="125%"><tspan
         sodipodi:role="line"
         id="tspan3777"
         x="32.827404"
         y="-203.07727">&quot;Hello&quot; = [1,0,0]</tspan></text>
    <text
       xml:space="preserve"
       style="font-size:40px;font-style:normal;font-variant:normal;font-weight:normal;font-stretch:normal;text-align:start;line-height:125%;letter-spacing:0px;word-spacing:0px;writing-mode:lr-tb;text-anchor:start;fill:#000000;fill-opacity:1;stroke:none;font-family:Sans;-inkscape-font-specification:Sans"
       x="83.571426"
       y="-295.49496"
       id="text3779"
       sodipodi:linespacing="125%"><tspan
         sodipodi:role="line"
         id="tspan3781"
         x="83.571426"
         y="-295.49496">1</tspan><tspan
         sodipodi:role="line"
         x="83.571426"
         y="-245.49496"
         id="tspan3783" /></text>
    <text
       sodipodi:linespacing="125%"
       id="text3785"
       y="-298.35211"
       x="170.71428"
       style="font-size:40px;font-style:normal;font-variant:normal;font-weight:normal;font-stretch:normal;text-align:start;line-height:125%;letter-spacing:0px;word-spacing:0px;writing-mode:lr-tb;text-anchor:start;fill:#000000;fill-opacity:1;stroke:none;font-family:Sans;-inkscape-font-specification:Sans"
       xml:space="preserve"><tspan
         y="-298.35211"
         x="170.71428"
         id="tspan3787"
         sodipodi:role="line">0</tspan><tspan
         y="-248.35211"
         x="170.71428"
         sodipodi:role="line"
         id="tspan3791" /><tspan
         id="tspan3789"
         y="-198.35211"
         x="170.71428"
         sodipodi:role="line" /></text>
    <text
       xml:space="preserve"
       style="font-size:40px;font-style:normal;font-variant:normal;font-weight:normal;font-stretch:normal;text-align:start;line-height:125%;letter-spacing:0px;word-spacing:0px;writing-mode:lr-tb;text-anchor:start;fill:#000000;fill-opacity:1;stroke:none;font-family:Sans;-inkscape-font-specification:Sans"
       x="257.85715"
       y="-291.20926"
       id="text3793"
       sodipodi:linespacing="125%"><tspan
         sodipodi:role="line"
         id="tspan3795"
         x="257.85715"
         y="-291.20926">0</tspan><tspan
         sodipodi:role="line"
         x="257.85715"
         y="-241.20926"
         id="tspan3797" /></text>
    <path
       transform="matrix(0.6012461,0,0,0.6012461,468.72052,-437.13328)"
       d="m 125.71429,243.07646 a 40.714287,40.714287 0 1 1 -81.428577,0 40.714287,40.714287 0 1 1 81.428577,0 z"
       sodipodi:ry="40.714287"
       sodipodi:rx="40.714287"
       sodipodi:cy="243.07646"
       sodipodi:cx="85"
       id="path3825"
       style="fill:#ffffff;fill-opacity:1;fill-rule:nonzero;stroke:#000000;stroke-width:5;stroke-miterlimit:4;stroke-opacity:1;stroke-dasharray:none"
       sodipodi:type="arc" />
    <path
       sodipodi:type="arc"
       style="fill:#ffffff;fill-opacity:1;fill-rule:nonzero;stroke:#000000;stroke-width:5;stroke-miterlimit:4;stroke-opacity:1;stroke-dasharray:none"
       id="path3827"
       sodipodi:cx="85"
       sodipodi:cy="243.07646"
       sodipodi:rx="40.714287"
       sodipodi:ry="40.714287"
       d="m 125.71429,243.07646 a 40.714287,40.714287 0 1 1 -81.428577,0 40.714287,40.714287 0 1 1 81.428577,0 z"
       transform="matrix(0.6012461,0,0,0.6012461,553.7539,-438.85113)" />
    <path
       transform="matrix(0.6012461,0,0,0.6012461,637.92835,-433.69759)"
       d="m 125.71429,243.07646 a 40.714287,40.714287 0 1 1 -81.428577,0 40.714287,40.714287 0 1 1 81.428577,0 z"
       sodipodi:ry="40.714287"
       sodipodi:rx="40.714287"
       sodipodi:cy="243.07646"
       sodipodi:cx="85"
       id="path3829"
       style="fill:#ffffff;fill-opacity:1;fill-rule:nonzero;stroke:#000000;stroke-width:5;stroke-miterlimit:4;stroke-opacity:1;stroke-dasharray:none"
       sodipodi:type="arc" />
    <path
       sodipodi:type="arc"
       style="fill:#ffffff;fill-opacity:1;fill-rule:nonzero;stroke:#000000;stroke-width:5;stroke-miterlimit:4;stroke-opacity:1;stroke-dasharray:none"
       id="path3831"
       sodipodi:cx="85"
       sodipodi:cy="243.07646"
       sodipodi:rx="40.714287"
       sodipodi:ry="40.714287"
       d="m 125.71429,243.07646 a 40.714287,40.714287 0 1 1 -81.428577,0 40.714287,40.714287 0 1 1 81.428577,0 z"
       transform="matrix(0.6012461,0,0,0.6012461,424.91545,-655.0149)" />
    <path
       transform="matrix(0.6012461,0,0,0.6012461,507.80596,-608.8756)"
       d="m 125.71429,243.07646 a 40.714287,40.714287 0 1 1 -81.428577,0 40.714287,40.714287 0 1 1 81.428577,0 z"
       sodipodi:ry="40.714287"
       sodipodi:rx="40.714287"
       sodipodi:cy="243.07646"
       sodipodi:cx="85"
       id="path3833"
       style="fill:#ffffff;fill-opacity:1;fill-rule:nonzero;stroke:#000000;stroke-width:5;stroke-miterlimit:4;stroke-opacity:1;stroke-dasharray:none"
       sodipodi:type="arc" />
    <path
       sodipodi:type="arc"
       style="fill:#ffffff;fill-opacity:1;fill-rule:nonzero;stroke:#000000;stroke-width:5;stroke-miterlimit:4;stroke-opacity:1;stroke-dasharray:none"
       id="path3835"
       sodipodi:cx="85"
       sodipodi:cy="243.07646"
       sodipodi:rx="40.714287"
       sodipodi:ry="40.714287"
       d="m 125.71429,243.07646 a 40.714287,40.714287 0 1 1 -81.428577,0 40.714287,40.714287 0 1 1 81.428577,0 z"
       transform="matrix(0.6012461,0,0,0.6012461,593.40899,-559.43635)" />
    <path
       transform="matrix(0.6012461,0,0,0.6012461,685.72986,-505.58455)"
       d="m 125.71429,243.07646 a 40.714287,40.714287 0 1 1 -81.428577,0 40.714287,40.714287 0 1 1 81.428577,0 z"
       sodipodi:ry="40.714287"
       sodipodi:rx="40.714287"
       sodipodi:cy="243.07646"
       sodipodi:cx="85"
       id="path3837"
       style="fill:#ffffff;fill-opacity:1;fill-rule:nonzero;stroke:#000000;stroke-width:5;stroke-miterlimit:4;stroke-opacity:1;stroke-dasharray:none"
       sodipodi:type="arc" />
    <path
       sodipodi:type="arc"
       style="fill:#ffffff;fill-opacity:1;fill-rule:nonzero;stroke:#000000;stroke-width:5;stroke-miterlimit:4;stroke-opacity:1;stroke-dasharray:none"
       id="path3839"
       sodipodi:cx="85"
       sodipodi:cy="243.07646"
       sodipodi:rx="40.714287"
       sodipodi:ry="40.714287"
       d="m 125.71429,243.07646 a 40.714287,40.714287 0 1 1 -81.428577,0 40.714287,40.714287 0 1 1 81.428577,0 z"
       transform="matrix(0.6012461,0,0,0.6012461,464.4348,-748.90849)" />
    <path
       transform="matrix(0.6012461,0,0,0.6012461,549.46818,-750.62634)"
       d="m 125.71429,243.07646 a 40.714287,40.714287 0 1 1 -81.428577,0 40.714287,40.714287 0 1 1 81.428577,0 z"
       sodipodi:ry="40.714287"
       sodipodi:rx="40.714287"
       sodipodi:cy="243.07646"
       sodipodi:cx="85"
       id="path3841"
       style="fill:#ffffff;fill-opacity:1;fill-rule:nonzero;stroke:#000000;stroke-width:5;stroke-miterlimit:4;stroke-opacity:1;stroke-dasharray:none"
       sodipodi:type="arc" />
    <path
       sodipodi:type="arc"
       style="fill:#ffffff;fill-opacity:1;fill-rule:nonzero;stroke:#000000;stroke-width:5;stroke-miterlimit:4;stroke-opacity:1;stroke-dasharray:none"
       id="path3843"
       sodipodi:cx="85"
       sodipodi:cy="243.07646"
       sodipodi:rx="40.714287"
       sodipodi:ry="40.714287"
       d="m 125.71429,243.07646 a 40.714287,40.714287 0 1 1 -81.428577,0 40.714287,40.714287 0 1 1 81.428577,0 z"
       transform="matrix(0.6012461,0,0,0.6012461,633.64263,-745.4728)" />
    <text
       sodipodi:linespacing="125%"
       id="text3845"
       y="-278.35211"
       x="592.2915"
       style="font-size:40px;font-style:normal;font-variant:normal;font-weight:normal;font-stretch:normal;text-align:start;line-height:125%;letter-spacing:0px;word-spacing:0px;writing-mode:lr-tb;text-anchor:start;fill:#000000;fill-opacity:1;stroke:none;font-family:Sans;-inkscape-font-specification:Sans"
       xml:space="preserve"><tspan
         y="-278.35211"
         x="592.2915"
         id="tspan3847"
         sodipodi:role="line">1</tspan><tspan
         id="tspan3849"
         y="-228.35211"
         x="592.2915"
         sodipodi:role="line" /></text>
    <text
       xml:space="preserve"
       style="font-size:40px;font-style:normal;font-variant:normal;font-weight:normal;font-stretch:normal;text-align:start;line-height:125%;letter-spacing:0px;word-spacing:0px;writing-mode:lr-tb;text-anchor:start;fill:#000000;fill-opacity:1;stroke:none;font-family:Sans;-inkscape-font-specification:Sans"
       x="508.7186"
       y="-277.16867"
       id="text3851"
       sodipodi:linespacing="125%"><tspan
         sodipodi:role="line"
         id="tspan3853"
         x="508.7186"
         y="-277.16867">0</tspan><tspan
         id="tspan3855"
         sodipodi:role="line"
         x="508.7186"
         y="-227.16866" /><tspan
         sodipodi:role="line"
         x="508.7186"
         y="-177.16866"
         id="tspan3857" /></text>
    <text
       sodipodi:linespacing="125%"
       id="text3859"
       y="-274.06641"
       x="680.71429"
       style="font-size:40px;font-style:normal;font-variant:normal;font-weight:normal;font-stretch:normal;text-align:start;line-height:125%;letter-spacing:0px;word-spacing:0px;writing-mode:lr-tb;text-anchor:start;fill:#000000;fill-opacity:1;stroke:none;font-family:Sans;-inkscape-font-specification:Sans"
       xml:space="preserve"><tspan
         y="-274.06641"
         x="680.71429"
         id="tspan3861"
         sodipodi:role="line">0</tspan><tspan
         id="tspan3863"
         y="-224.06641"
         x="680.71429"
         sodipodi:role="line" /></text>
    <text
       sodipodi:linespacing="125%"
       id="text3865"
       y="-187.92499"
       x="463.15237"
       style="font-size:40px;font-style:normal;font-variant:normal;font-weight:normal;font-stretch:normal;text-align:start;line-height:125%;letter-spacing:0px;word-spacing:0px;writing-mode:lr-tb;text-anchor:start;fill:#000000;fill-opacity:1;stroke:none;font-family:Sans;-inkscape-font-specification:Sans"
       xml:space="preserve"><tspan
         y="-187.92499"
         x="463.15237"
         id="tspan3867"
         sodipodi:role="line">&quot;World&quot; = [0,1,0]</tspan></text>
    <path
       style="fill:none;stroke:#000000;stroke-width:1px;stroke-linecap:butt;stroke-linejoin:miter;stroke-opacity:1"
       d="m 449.51788,-509.33365 -370.725981,-17.1726 456.588951,65.65992"
       id="path3869"
       inkscape:connector-curvature="0" />
    <path
       style="fill:none;stroke:#000000;stroke-width:1px;stroke-linecap:butt;stroke-linejoin:miter;stroke-opacity:1"
       d="M 622.25397,-409.32855 76.771593,-529.5367 711.14739,-356.80062"
       id="path3871"
       inkscape:connector-curvature="0" />
    <path
       style="fill:none;stroke:#000000;stroke-width:1px;stroke-linecap:butt;stroke-linejoin:miter;stroke-opacity:1"
       d="m 455.5788,-507.31335 c 0,0 -278.8021,21.21321 -293.95439,21.21321 l 371.73613,27.27411"
       id="path3873"
       inkscape:connector-curvature="0" />
    <path
       style="fill:none;stroke:#000000;stroke-width:1px;stroke-linecap:butt;stroke-linejoin:miter;stroke-opacity:1"
       d="m 619.22351,-412.35901 c 0,0 -446.48742,-67.68022 -459.61941,-67.68022 l 555.5839,123.23861"
       id="path3875"
       inkscape:connector-curvature="0" />
    <path
       style="fill:none;stroke:#000000;stroke-width:1px;stroke-linecap:butt;stroke-linejoin:miter;stroke-opacity:1"
       d="m 448.50773,-507.31335 c 0,0 -197.9899,67.68022 -204.05081,69.70053 17.17259,1.01015 288.90362,-20.20305 288.90362,-20.20305"
       id="path3877"
       inkscape:connector-curvature="0" />
    <path
       style="fill:none;stroke:#000000;stroke-width:1px;stroke-linecap:butt;stroke-linejoin:miter;stroke-opacity:1"
       d="m 253.54829,-433.57221 367.69553,23.23351"
       id="path3879"
       inkscape:connector-curvature="0" />
    <path
       style="fill:none;stroke:#000000;stroke-width:1px;stroke-linecap:butt;stroke-linejoin:miter;stroke-opacity:1"
       d="m 243.44676,-431.55191 469.72094,75.76144"
       id="path3881"
       inkscape:connector-curvature="0" />
    <path
       style="fill:none;stroke:#000000;stroke-width:1px;stroke-linecap:butt;stroke-linejoin:miter;stroke-opacity:1"
       d="m 454.56865,-507.31335 -117.1777,125.25892 195.96959,-78.7919"
       id="path3883"
       inkscape:connector-curvature="0" />
    <path
       style="fill:none;stroke:#000000;stroke-width:1px;stroke-linecap:butt;stroke-linejoin:miter;stroke-opacity:1"
       d="m 620.23366,-408.3184 -278.8021,28.28427 372.74629,24.24366"
       id="path3885"
       inkscape:connector-curvature="0" />
    <path
       style="fill:none;stroke:#ff0000;stroke-width:1px;stroke-linecap:butt;stroke-linejoin:miter;stroke-opacity:1"
       d="m 85.862966,-591.15601 -22.223356,40.4061 109.09648,-40.4061"
       id="path3887"
       inkscape:connector-curvature="0" />
    <path
       style="fill:none;stroke:#ff0000;stroke-width:1px;stroke-linecap:butt;stroke-linejoin:miter;stroke-opacity:1"
       d="M 70.710678,-548.7296 260.61936,-585.09509"
       id="path3897"
       inkscape:connector-curvature="0" />
    <text
       xml:space="preserve"
       style="font-size:40px;font-style:normal;font-variant:normal;font-weight:normal;font-stretch:normal;text-align:start;line-height:125%;letter-spacing:0px;word-spacing:0px;writing-mode:lr-tb;text-anchor:start;fill:#000000;fill-opacity:1;stroke:none;font-family:Sans;-inkscape-font-specification:Sans"
       x="158.59398"
       y="-602.2677"
       id="text3903"
       sodipodi:linespacing="125%"><tspan
         sodipodi:role="line"
         id="tspan3905"
         x="158.59398"
         y="-602.2677">.8</tspan></text>
  </g>
</svg>
